<svg viewBox="0 0 598.34 65.8" xmlns="http://www.w3.org/2000/svg"
     class="fill-current h-8 sm:h-12 lg:h-16 text-white mx-auto">
    <defs>
        <linearGradient id="a" x2="1" gradientTransform="matrix(-74.222 105.93 -102.29 -5.6287 -2445.4 -166.29)"
                        gradientUnits="userSpaceOnUse">
            <stop stop-color="#f2c48c" stop-opacity=".24" offset="0"></stop>
            <stop stop-color="#f7a81e" stop-opacity=".24" offset="1"></stop>
        </linearGradient>
        <linearGradient id="b" x2="1" gradientTransform="matrix(63.4 -180.2 180.2 63.4 -2906.7 -434.79)"
                        gradientUnits="userSpaceOnUse">
            <stop stop-color="#f7a81e" offset="0"></stop>
            <stop stop-color="#f4a536" offset="1"></stop>
        </linearGradient>
    </defs>
    <g>
        <title>Layer 1</title>
        <path fill="#fff" d="m0 0.52h8.46v33h17.14v7h-25.6v-40z"></path>
        <path fill="#fff"
            d="m97.97 0.52h15.79c9.08 0 14.33 5.12 14.33 13.07 0 5.47-2.52 9.43-7.07 11.39l8.5 15.54h-9.34l-7.57-14.18h-6.18v14.18h-8.45l-0.01-40zm14.2 19c4.84 0 7.2-2 7.2-6s-2.36-6.15-7.24-6.15h-5.71v12.11l5.75 0.04z"></path>
        <path fill="#fff"
            d="m145.64 40.52 13.81-40h10.9l13.79 40h-9.06l-3-9.12h-14.41l-2.91 9.12h-9.12zm24.34-15.72-4.92-15.14h-0.3l-4.92 15.14h10.14z"></path>
        <path fill="#fff" d="m214.63 30.93h0.37l9.69-30.41h9.37l-13.79 40h-10.9l-13.81-40h9.4l9.67 30.41z"></path>
        <path fill="#fff" d="m252.62 0.52h26.95v7h-18.5v9.53h17.11v7h-17.11v9.55h18.58v7h-27l-0.03-40.08z"></path>
        <path fill="#fff" d="m300.06 0.52h8.45v33h17.15v7h-25.6v-40z"></path>
        <path fill="#fff" d="m371.52 0.52h26.95v7h-18.49v9.53h17.11v7h-17.11v9.55h18.57v7h-27l-0.03-40.08z"></path>
        <path fill="#fff"
            d="m434.96 14.18h0.31l8.11-13.66h9.55l-12.17 20 12.48 20h-9.73l-8.2-13.65h-0.31l-8.24 13.65h-9.69l12.52-20-12.29-20h9.59l8.07 13.66z"></path>
        <path fill="#fff"
            d="m496.91 14.52c-0.64-4.4-4-7.07-8.61-7.07-6.19 0-10.25 4.74-10.25 13.06 0 8.56 4.12 13.07 10.19 13.07 4.51 0 7.87-2.46 8.67-6.74h8.56c-0.92 7.36-7.11 14.18-17.37 14.18-10.7 0-18.63-7.5-18.63-20.55s8.07-20.54 18.63-20.54c9.26 0 16.25 5.31 17.37 14.55l-8.56 0.04z"></path>
        <path fill="#fff" d="m525.29 0.52h27v7h-18.53v9.53h17.1v7h-17.1v9.55h18.57v7h-27l-0.04-40.08z"></path>
        <path fill="#fff" d="m572.76 0.52h8.46v33h17.15v7h-25.61v-40z"></path>
        <path fill="#fff"
            d="m446.47 53.66h4c2.33 0 3.51 1.34 3.51 3.14a2.49 2.49 0 0 1-1.9 2.61v0.11a2.78 2.78 0 0 1 2.36 3c0 1.82-1.18 3.14-3.75 3.14h-4.25l0.03-12zm4.13 5.41a2.22 2.22 0 0 0 2.36-2.27c0-1.27-0.83-2.15-2.46-2.15h-2.94v4.42h3.04zm0.12 5.58c1.85 0 2.71-0.92 2.71-2.16a2.48 2.48 0 0 0-2.66-2.45h-3.21v4.61h3.16z"></path>
        <path fill="#fff" d="m461.36 53.66 3.54 5.69h0.1l3.54-5.69h1.22l-4.31 6.79v5.18h-1.08v-5.18l-4.31-6.79h1.3z"></path>
        <path fill="#fff"
            d="m487.95 57.12a1.47 1.47 0 0 0-0.61-1.1 2.43 2.43 0 0 0-1.46-0.4 2.65 2.65 0 0 0-1 0.19 1.37 1.37 0 0 0-0.66 0.47 1.12 1.12 0 0 0-0.22 0.69 0.87 0.87 0 0 0 0.13 0.56 1.27 1.27 0 0 0 0.42 0.41 2.67 2.67 0 0 0 0.61 0.3 7.19 7.19 0 0 0 0.74 0.21l1.08 0.25a8.69 8.69 0 0 1 1.44 0.47 4.13 4.13 0 0 1 1.14 0.73 2.86 2.86 0 0 1 0.76 1 3.49 3.49 0 0 1-0.3 3.22 3.39 3.39 0 0 1-1.59 1.23 6.29 6.29 0 0 1-2.51 0.45 6.46 6.46 0 0 1-2.53-0.45 3.55 3.55 0 0 1-1.69-1.31 3.87 3.87 0 0 1-0.63-2.15h2.47a1.7 1.7 0 0 0 0.34 1 1.83 1.83 0 0 0 0.83 0.59 3.32 3.32 0 0 0 1.18 0.2 2.93 2.93 0 0 0 1.12-0.18 1.82 1.82 0 0 0 0.75-0.53 1.14 1.14 0 0 0 0.26-0.75 1 1 0 0 0-0.26-0.7 1.94 1.94 0 0 0-0.68-0.48 6.55 6.55 0 0 0-1.12-0.34l-1.31-0.33a5.44 5.44 0 0 1-2.4-1.15 2.66 2.66 0 0 1-0.87-2.1 3 3 0 0 1 0.58-1.89 4 4 0 0 1 1.62-1.29 6 6 0 0 1 2.36-0.44 5.88 5.88 0 0 1 2.34 0.44 3.74 3.74 0 0 1 1.55 1.29 3.27 3.27 0 0 1 0.58 1.87l-2.46 0.02z"></path>
        <path fill="#fff"
            d="m496.51 65.63v-11.94h4.75a4.83 4.83 0 0 1 2.33 0.51 3.54 3.54 0 0 1 1.47 1.42 4.17 4.17 0 0 1 0.51 2.11 4.35 4.35 0 0 1-0.51 2.1 3.49 3.49 0 0 1-1.5 1.42 5.06 5.06 0 0 1-2.37 0.5h-3v-2h2.57a2.76 2.76 0 0 0 1.22-0.24 1.73 1.73 0 0 0 0.71-0.71 2.14 2.14 0 0 0 0.23-1.05 2 2 0 0 0-0.23-1 1.69 1.69 0 0 0-0.71-0.69 2.53 2.53 0 0 0-1.22-0.26h-1.7v9.89l-2.55-0.06z"></path>
        <path fill="#fff"
            d="m526.61 65.63v-11.94h4.74a5.12 5.12 0 0 1 2.34 0.47 3.37 3.37 0 0 1 1.47 1.36 3.85 3.85 0 0 1 0.51 2.05 4 4 0 0 1-0.51 2.05 3.28 3.28 0 0 1-1.51 1.3 5.26 5.26 0 0 1-2.36 0.46h-3.18v-2h2.76a3.14 3.14 0 0 0 1.23-0.2 1.56 1.56 0 0 0 0.71-0.6 1.8 1.8 0 0 0 0.23-1 1.88 1.88 0 0 0-0.23-1 1.63 1.63 0 0 0-0.73-0.63 3.2 3.2 0 0 0-1.21-0.21h-1.72v9.89h-2.54zm6.5-5.44 3 5.44h-2.81l-2.93-5.44h2.74z"></path>
        <path fill="#fff" d="m540.76 55.77v-2.08h9.88v2.08h-3.69v9.86h-2.52v-9.86h-3.67z"></path>
        <path fill="#fff" d="m566.94 53.69v11.94h-2.18l-5.24-7.52h-0.09v7.52h-2.57v-11.94h2.24l5.19 7.51h0.1v-7.51h2.55z"></path>
        <path fill="#fff" d="m573.2 65.63v-11.94h8.1v2.08h-5.54v2.85h5.14v2.08h-5.14v2.82h5.59v2.08l-8.15 0.03z"></path>
        <path fill="#fff"
            d="m587.56 65.63v-11.94h4.74a5.12 5.12 0 0 1 2.34 0.47 3.37 3.37 0 0 1 1.47 1.37 3.85 3.85 0 0 1 0.51 2.05 4 4 0 0 1-0.51 2.05 3.33 3.33 0 0 1-1.51 1.3 5.29 5.29 0 0 1-2.36 0.46h-3.18v-2h2.76a3.14 3.14 0 0 0 1.23-0.2 1.62 1.62 0 0 0 0.71-0.6 1.89 1.89 0 0 0 0.23-1 2 2 0 0 0-0.23-1 1.68 1.68 0 0 0-0.73-0.63 3.2 3.2 0 0 0-1.21-0.21h-1.72v9.89l-2.54-0.01zm6.5-5.44 3 5.44h-2.81l-2.93-5.44h2.74z"></path>
        <rect transform="rotate(-72.28 90.91 508.39)" x="640.78" y="772.22" width="11.95" height="2.51"
              fill="#f5a823"></rect>
        <rect transform="rotate(-17.72 -97.33 -22.26)" x="462.01" y="236.85" width="2.51" height="11.95"
              fill="#f5a823"></rect>
        <rect x="513.23" y="53.53" width="3.5" height=".88" fill="#f5a823"></rect>
        <g stroke="null">
            <g transform="matrix(.042944 0 0 .042494 183.61 31.51)" stroke="null">
                <rect x="-3295.6" y="-724.08" width="853.74" height="959.16" fill="none"></rect>
                <g transform="matrix(1.0196 0 0 1.0304 -16.522 -18.498)">
                    <g transform="matrix(1 0 .64752 1 -27.033 0)">
                        <path d="m-2692.3 238.88 218.94-58.05 276.92-863.6h-201.25l-294.61 921.65z" fill="#f59a02"
                              stroke="null"></path>
                    </g>
                    <g transform="matrix(1 0 .64752 1 -27.033 0)">
                        <path d="m-2692.3 238.88 218.94-58.05 113.13-352.81-178.65-69.119-153.43 479.98z" fill="url(#a)"
                              stroke="null"></path>
                    </g>
                    <path d="m-3208.3 184.8 181.7 58.27 296.87-925.84h-201.25l-277.32 867.57z" fill="#f59a02"></path>
                    <path d="m-3130.2 209.86 103.54 33.21 296.87-925.84h-117.67l-282.74 892.63z" fill="#f69e0b"></path>
                    <path d="m-3208.3 184.8 181.7 58.27-137.96-195.12-43.745 136.86z" fill="#f4a536"></path>
                    <path d="m-2989.2-500.65 149.97 154.08 109.5-336.21h-201.25l-58.216 182.12z" fill="url(#b)"></path>
                </g>
            </g>
        </g>
    </g>
</svg>
